<svg version="1.1" id="" xmlns="http://www.w3.org/2000/svg" xmlns:xlink="http://www.w3.org/1999/xlink" x="0px" y="0px"
           width="100%" height="2855.429px" viewBox="0 0 893.821 2855.429" enable-background="new 0 0 893.821 2855.429"
           xml:space="preserve">
          <path class="path" fill="none" stroke="#fcdb4b" stroke-width="8" stroke-miterlimit="10" d="M217.441,10
            c253.46-3.696,538,13.981,519,197.981c-13.945,135.05-136.274,153.274-362.893,153.274c-185.107,0-249.107,4.726-252.107,140.726
            c-4.233,191.896,470.28,147.359,513.192,157c244.808,55,95.808,308.249-123.562,316.641
            c-228.571,8.743-397.132,370.105-309.63,456.452c119.167,117.594,208.733-55.093,119.167-118.093
            c-146.499-103.046-285.919,277-91.543,373s353.781-139.747,403.266-20.938c49.485,118.809,61.632,321.224-205.629,411.081
            s-398.47,469.678,95.135,478.768"/>
          <path fill="none" stroke="#424142" stroke-width="8" stroke-miterlimit="10" d="M521.836,2751.679"/>
          <path fill="none" d="M203.174,2476.038c-46.675,123.163,14.072,255.211,272.871,273.629"/>
          
          <path fill="none" d="M658.39,1961.073c12.67,111.795-29.755,243.944-231.688,311.838c-56.805,19.099-107.463,51.296-147.282,90.249"
            />
          <g>
            <path fill="none" d="M148.513,1616.863c-30.816,94.84-18.283,217.092,80.552,265.905c112.264,55.446,212.862,0.229,287.355-33.428"
              />
          </g>
          <g>
            <path fill="none" d="M730.954,901.668c92.075,91.974-40.333,262.873-219.883,269.741c-83.369,3.189-158.755,53.289-216.644,119.844
              "/>
          </g>
          <g>
            <path fill="none" d="M537.816,550.748c-46.691,4.896-101.477,6.295-164.268,6.295c-185.107,0-249.107,4.726-252.107,140.726
              c-2.833,128.429,208.772,150.957,361.917,154.699"/>
          </g>
          <path fill="none" d="M217.441,205.788c253.46-3.696,538,13.981,519,197.981c-10.081,97.63-76.806,134.206-198.625,146.979"/>
        
        </svg>